<?xml version="1.0" standalone="no"?>
<!DOCTYPE svg PUBLIC "-//W3C//DTD SVG 20010904//EN"
 "http://www.w3.org/TR/2001/REC-SVG-20010904/DTD/svg10.dtd">
<svg version="1.0" xmlns="http://www.w3.org/2000/svg"
 width="4760.000000pt" height="4760.000000pt" viewBox="0 0 4760.000000 4760.000000"
 preserveAspectRatio="xMidYMid meet">
<metadata>
Created by potrace 1.11, written by Peter Selinger 2001-2013
</metadata>
<g transform="translate(0.000000,4760.000000) scale(0.100000,-0.100000)"
fill="#000000" stroke="none">
<path d="M33699 26606 c-2 -3 -40 -7 -84 -11 -44 -3 -91 -8 -105 -10 -14 -3
-43 -8 -65 -11 -22 -3 -49 -8 -60 -9 -11 -2 -38 -6 -60 -10 -22 -3 -48 -8 -57
-11 -9 -3 -26 -7 -38 -9 -87 -17 -336 -89 -395 -115 -11 -4 -60 -24 -110 -43
-80 -31 -289 -130 -339 -160 -81 -49 -238 -149 -272 -173 -211 -149 -457 -388
-605 -589 -24 -33 -46 -62 -49 -65 -3 -3 -20 -27 -38 -55 -17 -27 -35 -55 -40
-60 -5 -6 -24 -40 -43 -75 -19 -36 -36 -67 -39 -70 -11 -10 -99 -197 -105
-223 -4 -15 -11 -27 -16 -27 -5 0 -8 -3 -7 -7 2 -9 -8 -47 -22 -78 -13 -31
-42 -109 -42 -115 0 -3 -2 -9 -4 -15 -10 -30 -54 -212 -58 -240 -2 -11 -6 -29
-9 -40 -3 -11 -8 -40 -11 -65 -4 -25 -8 -56 -11 -70 -2 -14 -7 -54 -10 -90 -4
-36 -8 -83 -10 -105 -6 -55 -6 -421 0 -470 2 -22 7 -69 10 -105 10 -103 35
-252 61 -355 8 -33 16 -67 17 -75 2 -8 14 -49 27 -90 13 -41 24 -79 26 -85 4
-22 79 -202 96 -233 10 -18 18 -39 18 -46 0 -8 3 -16 8 -18 4 -1 20 -28 35
-58 15 -30 33 -64 40 -74 7 -11 32 -52 56 -90 24 -39 48 -72 52 -74 5 -2 9 -8
9 -13 0 -9 100 -143 145 -194 83 -94 200 -207 295 -285 30 -25 57 -47 60 -50
3 -3 12 -9 22 -15 9 -5 51 -35 95 -66 268 -191 648 -373 888 -425 6 -1 28 -7
50 -12 22 -6 55 -14 74 -17 19 -3 37 -7 40 -9 3 -2 28 -7 55 -10 27 -4 52 -9
55 -10 3 -2 33 -7 66 -10 33 -4 74 -9 90 -12 17 -3 50 -7 75 -9 25 -2 92 -7
150 -11 127 -10 1714 -10 1855 -1 193 13 309 26 450 52 17 3 39 8 50 9 174 32
409 110 593 198 153 73 444 249 464 281 4 7 8 8 8 4 0 -5 6 -2 14 5 8 7 29 24
47 38 107 81 234 194 308 274 20 21 45 49 56 60 11 12 42 48 68 81 26 33 54
67 62 77 25 31 136 198 142 216 4 9 10 19 13 22 11 7 100 181 144 278 65 147
138 377 162 512 2 14 9 48 14 75 5 28 12 73 15 100 4 28 8 64 11 80 19 152 19
537 0 641 -2 11 -7 44 -10 75 -4 31 -9 67 -11 80 -3 13 -7 35 -10 49 -8 44
-34 154 -45 195 -6 22 -15 56 -20 75 -10 40 -70 205 -95 265 -48 114 -193 387
-214 405 -3 3 -12 17 -19 31 -15 29 -129 182 -207 278 -46 56 -263 273 -331
330 -119 101 -354 257 -493 328 -36 19 -70 38 -78 44 -7 6 -13 9 -13 5 0 -3
-21 5 -47 19 -69 35 -149 69 -223 95 -36 12 -74 26 -85 30 -26 11 -129 44
-132 42 -2 -1 -21 5 -43 13 -22 8 -40 12 -40 10 0 -2 -18 2 -40 10 -22 8 -40
12 -40 10 0 -3 -11 0 -25 5 -14 5 -46 12 -72 16 -27 3 -52 9 -57 11 -4 3 -20
7 -35 8 -38 4 -188 24 -241 32 -47 7 -1754 16 -1761 9z m1606 -1190 c97 -14
257 -68 380 -127 99 -47 215 -109 225 -119 3 -3 30 -23 60 -45 52 -37 198
-177 248 -239 13 -16 48 -63 78 -105 29 -42 58 -81 64 -88 5 -7 10 -16 10 -22
0 -5 3 -11 8 -13 7 -3 65 -117 82 -163 4 -11 17 -43 28 -71 12 -27 23 -61 26
-75 3 -13 12 -49 20 -79 16 -56 32 -134 43 -211 14 -100 5 -461 -12 -489 -3
-4 -7 -25 -10 -46 -25 -198 -137 -486 -241 -624 -160 -211 -476 -423 -697
-466 -10 -2 -26 -5 -35 -8 -23 -7 -84 -15 -162 -22 -90 -9 -1612 -9 -1735 -1
-55 4 -111 10 -125 13 -14 3 -41 8 -60 10 -42 6 -233 65 -240 74 -3 3 -27 17
-55 30 -27 13 -52 27 -55 30 -3 4 -16 13 -30 20 -33 17 -126 87 -170 127 -19
17 -44 40 -55 50 -60 54 -165 197 -224 306 -32 60 -93 202 -105 247 -38 136
-43 158 -51 215 -3 17 -9 59 -14 95 -9 61 -7 405 3 460 2 14 7 41 10 60 22
133 65 270 124 385 25 50 50 100 56 112 6 13 14 23 19 23 4 0 7 5 7 12 0 36
155 245 259 348 72 71 236 196 236 180 0 -3 14 4 30 16 28 19 134 72 215 107
53 23 181 65 219 72 19 3 37 8 41 10 4 2 35 7 71 11 35 3 65 7 66 8 6 6 1413
-2 1448 -8z"/>
<path d="M3506 26533 c-1 -1 -323 -5 -716 -8 -705 -5 -932 -10 -1040 -19 -103
-9 -220 -23 -230 -26 -3 -2 -8 -2 -12 -1 -4 0 -29 -4 -55 -9 -27 -5 -59 -12
-73 -14 -14 -3 -59 -14 -100 -26 -41 -11 -79 -22 -85 -23 -62 -17 -312 -128
-325 -145 -3 -4 -16 -13 -30 -20 -134 -66 -400 -290 -490 -411 -14 -19 -30
-39 -35 -45 -49 -52 -209 -341 -220 -395 -2 -11 -8 -28 -13 -38 -14 -26 -60
-218 -69 -288 -9 -67 -9 -386 0 -455 8 -57 24 -145 35 -190 15 -58 62 -184 72
-194 6 -6 10 -18 10 -28 0 -10 5 -18 10 -18 6 0 10 -5 10 -11 0 -16 82 -136
125 -184 100 -112 198 -205 255 -245 19 -13 37 -27 40 -30 11 -14 99 -70 109
-70 6 0 11 -4 11 -9 0 -5 8 -11 18 -15 9 -3 51 -24 92 -46 76 -40 282 -118
420 -159 41 -13 86 -26 100 -31 14 -4 43 -13 65 -19 22 -6 67 -18 100 -28 33
-9 67 -17 75 -19 8 -1 51 -11 95 -22 44 -11 94 -24 110 -28 17 -4 35 -8 40
-10 11 -3 56 -11 100 -19 17 -3 46 -10 65 -15 19 -5 46 -11 60 -14 14 -3 45
-11 70 -16 25 -6 52 -12 60 -14 8 -1 31 -6 50 -11 19 -5 38 -10 43 -11 4 -1 9
-3 12 -4 3 -1 8 -3 13 -4 18 -5 133 -38 197 -58 39 -12 75 -23 80 -24 6 -1 45
-16 87 -33 209 -83 292 -142 346 -245 24 -45 26 -62 27 -151 0 -117 -16 -155
-87 -221 -72 -66 -202 -116 -366 -139 -24 -3 -60 -9 -80 -12 -20 -3 -554 -7
-1186 -8 -743 -2 -1151 -7 -1155 -13 -8 -13 -8 -1089 0 -1096 3 -4 201 -8 440
-11 239 -3 619 -8 844 -11 771 -10 1203 -7 1375 11 30 3 73 8 95 10 101 9 277
40 348 60 26 8 48 14 50 13 16 -4 239 80 248 94 3 6 9 9 13 9 25 -4 307 168
390 238 69 59 225 220 267 276 142 190 223 376 275 629 13 64 18 150 18 286 0
128 -7 255 -14 255 -1 0 -3 11 -4 25 -2 14 -6 39 -9 55 -4 17 -9 39 -11 50
-10 49 -60 185 -92 248 -70 140 -184 274 -353 417 -30 25 -59 51 -67 58 -7 6
-17 12 -23 12 -6 0 -11 5 -11 10 0 6 -7 10 -15 10 -8 0 -15 4 -15 8 0 5 -19
19 -41 33 -23 13 -58 34 -78 47 -34 21 -131 69 -211 104 -19 9 -100 37 -180
63 -80 26 -152 49 -160 52 -8 4 -19 7 -25 8 -5 2 -57 16 -115 33 -94 26 -161
44 -167 43 -2 0 -33 9 -70 20 -38 11 -81 23 -98 25 -16 3 -52 12 -78 19 -27 8
-52 14 -55 14 -4 -1 -9 0 -12 1 -7 2 -52 12 -135 29 -27 5 -93 19 -145 31 -52
12 -102 23 -111 25 -179 37 -400 115 -544 192 -135 72 -195 214 -159 375 18
75 43 119 109 191 49 54 155 106 250 124 34 7 821 16 2113 24 194 2 355 6 358
11 4 6 8 1045 4 1164 0 8 -122 11 -416 10 -229 -1 -417 -2 -418 -3z"/>
<path d="M5686 26500 c-5 -10 2 -3237 8 -3295 8 -92 17 -177 21 -205 12 -94
18 -127 39 -240 3 -14 12 -54 21 -90 9 -36 18 -72 20 -80 2 -8 4 -15 5 -15 1
0 3 -8 5 -17 7 -37 61 -191 98 -278 6 -14 11 -27 12 -30 1 -6 69 -140 86 -171
8 -13 18 -27 22 -30 5 -3 8 -9 8 -13 -2 -13 126 -200 148 -216 4 -3 14 -15 23
-28 38 -57 211 -223 343 -330 45 -37 218 -145 300 -188 186 -98 442 -188 646
-228 90 -18 133 -25 199 -32 57 -7 85 -12 85 -14 0 -7 197 -14 400 -14 215 -1
359 5 448 19 12 2 44 6 70 10 27 4 58 8 70 11 12 2 38 6 58 9 20 3 50 10 68
15 17 5 34 9 36 9 3 1 6 1 8 2 1 0 15 2 31 4 16 2 36 7 45 11 9 4 21 8 26 9 6
2 30 9 55 16 25 7 48 13 53 15 4 1 8 2 10 4 1 1 9 3 17 5 8 1 56 19 105 39 50
21 95 38 100 40 63 16 377 202 441 261 7 5 31 26 55 45 81 64 273 265 347 362
39 53 72 99 72 102 0 3 13 25 29 48 30 45 104 188 138 268 33 77 64 155 69
175 1 6 9 30 17 55 51 150 107 438 122 622 14 184 16 403 16 1768 0 828 0
1525 0 1551 l-1 45 -739 0 -739 0 0 -361 c0 -198 -1 -378 -1 -400 0 -22 0 -87
2 -145 1 -58 -1 -113 -6 -122 -4 -10 -4 -18 0 -18 7 0 8 -134 4 -355 0 -22 0
-87 2 -145 1 -58 -1 -113 -6 -122 -4 -10 -4 -18 0 -18 9 0 9 -892 0 -907 -4
-6 -4 -13 0 -17 13 -12 1 -634 -12 -656 -4 -6 -18 -113 -19 -142 0 -10 -4 -18
-9 -18 -4 0 -6 -4 -3 -8 5 -8 -7 -68 -21 -102 -3 -8 -8 -24 -10 -35 -8 -45
-78 -208 -116 -270 -113 -183 -287 -312 -492 -365 -115 -30 -153 -34 -310 -34
-149 -1 -234 7 -281 24 -16 6 -30 11 -32 10 -6 -3 -69 13 -87 23 -11 6 -24 12
-30 13 -23 4 -124 57 -143 75 -12 10 -25 19 -29 19 -13 0 -121 105 -156 152
-82 109 -166 288 -191 410 -3 13 -7 34 -10 48 -18 81 -35 195 -43 288 -3 37
-7 765 -8 1617 -1 853 -3 1553 -4 1556 -1 7 -1502 7 -1505 -1z"/>
<path d="M19300 26445 c-3 -418 0 -5258 2 -5261 2 -2 78 -3 168 -3 91 0 194
-1 230 -2 36 -1 72 -1 80 0 8 1 35 1 60 0 25 -1 52 -1 60 0 8 1 35 1 60 0 25
-1 51 -1 58 0 27 2 40 3 122 2 47 -1 92 -1 100 0 20 1 461 0 523 -1 l47 -1 0
916 0 915 43 0 c23 0 940 0 2038 1 l1996 0 0 579 0 580 -2038 0 -2039 0 0 588
0 588 2026 0 c1114 -1 2030 2 2035 5 5 3 9 16 9 30 0 13 0 50 0 82 -1 31 2 61
5 66 3 6 2 12 -3 15 -4 3 -5 30 -2 60 3 31 2 56 -2 56 -5 0 -4 9 2 20 6 11 7
20 3 20 -9 0 -8 114 2 129 3 6 3 11 -2 11 -10 0 -9 52 1 68 4 7 3 19 -2 28 -5
9 -6 32 -2 50 4 19 5 34 1 34 -3 0 -5 28 -3 62 3 68 3 70 1 169 -1 37 1 71 5
77 3 6 3 13 -2 16 -4 3 -5 30 -2 60 3 31 3 56 0 56 -4 0 -6 10 -6 22 l1 23
-2787 0 -2788 1 0 -61z"/>
<path d="M26256 26500 c-1 -3 -2 -1195 -2 -2650 l1 -2645 2015 0 2014 0 0 590
0 590 -1224 2 c-674 1 -1244 2 -1267 3 l-43 0 0 2058 0 2058 -746 0 c-410 0
-747 -3 -748 -6z"/>
<path d="M12219 26487 c-5 -41 -3 -1060 1 -1068 4 -5 692 -10 1615 -12 886 -1
1626 -6 1645 -10 19 -5 44 -10 55 -11 11 -2 40 -9 65 -16 25 -6 55 -14 68 -17
12 -3 25 -9 28 -14 3 -5 12 -9 20 -9 42 0 214 -143 214 -177 0 -7 4 -13 8 -13
8 0 33 -59 40 -95 2 -11 4 -24 6 -30 1 -5 4 -14 7 -20 6 -11 3 -181 -3 -205
-31 -109 -36 -122 -82 -185 -84 -116 -282 -202 -506 -220 -30 -2 -758 -5
-1617 -5 -1204 -1 -1563 -4 -1564 -13 -1 -7 -2 -239 -3 -516 -1 -329 2 -505 9
-507 5 -2 789 -5 1740 -7 952 -2 1741 -7 1755 -11 14 -4 43 -10 65 -13 62 -8
184 -51 244 -86 120 -68 206 -187 229 -317 11 -56 9 -188 -3 -250 -16 -85 -88
-195 -172 -261 -60 -48 -224 -111 -323 -124 -19 -3 -46 -8 -60 -12 -14 -3
-794 -8 -1735 -9 -940 -2 -1719 -3 -1730 -4 -20 0 -20 -6 -20 -535 l0 -536
1870 4 c1029 2 1890 7 1915 10 25 3 74 8 110 12 65 6 78 8 158 20 23 4 52 8
65 10 24 3 76 12 117 20 14 3 34 7 45 9 11 2 40 9 65 16 25 7 56 14 69 17 13
2 32 8 43 14 10 5 18 7 18 4 0 -2 17 1 38 9 40 15 63 23 74 25 5 1 34 13 65
27 32 14 63 27 68 28 13 3 109 50 115 56 3 3 21 13 40 22 41 20 93 50 100 59
3 3 27 21 55 39 97 66 218 183 294 285 95 125 181 329 207 485 2 14 7 36 10
50 18 73 18 389 1 465 -3 11 -8 40 -11 65 -7 48 -75 272 -85 280 -6 5 -44 81
-45 90 -1 3 -11 19 -24 37 -12 17 -22 36 -22 41 0 6 -3 12 -7 14 -5 2 -28 30
-53 63 -145 196 -379 371 -643 480 l-68 28 63 35 c275 154 475 394 587 704 19
55 24 72 36 136 3 15 11 52 17 82 15 73 14 318 -1 405 -15 83 -46 196 -68 245
-32 74 -92 190 -104 200 -3 3 -20 28 -39 55 -33 50 -254 275 -269 275 -4 0
-21 11 -36 24 -15 13 -40 30 -54 38 -14 7 -28 16 -31 19 -7 9 -202 109 -212
109 -4 0 -27 9 -51 19 -86 40 -338 113 -434 126 -16 2 -41 6 -58 9 -70 12
-149 23 -230 32 -33 3 -80 8 -105 11 -25 3 -843 7 -1817 8 -1331 2 -1773 0
-1774 -8z"/>
<path d="M38935 26380 c3 -14 42 -137 87 -275 44 -137 105 -326 135 -420 30
-93 58 -179 63 -190 4 -11 18 -54 30 -95 12 -41 35 -113 52 -160 16 -47 31
-95 34 -108 2 -13 11 -40 18 -60 8 -20 51 -152 96 -292 45 -140 93 -289 107
-330 14 -41 26 -79 27 -85 1 -5 27 -86 58 -180 31 -93 86 -264 123 -380 36
-115 69 -217 72 -225 4 -8 7 -17 8 -20 1 -3 12 -39 25 -80 13 -41 25 -77 25
-80 1 -3 40 -124 87 -270 127 -389 132 -405 133 -410 0 -3 39 -120 85 -260 46
-140 85 -260 86 -266 3 -16 125 -396 135 -419 7 -18 88 -267 93 -290 2 -5 6
-17 9 -25 3 -8 24 -73 47 -145 22 -71 46 -142 51 -156 l11 -27 793 0 c584 0
797 3 803 12 5 6 37 97 70 201 34 105 103 312 152 460 50 149 92 277 94 285 7
27 207 634 216 655 5 11 23 65 40 120 17 55 33 107 37 115 3 8 7 20 9 25 2 9
130 399 138 420 2 6 5 15 6 20 2 6 27 82 57 170 30 88 55 165 57 170 5 21 39
120 45 130 3 6 7 18 8 29 3 16 103 325 119 366 4 10 12 -1 21 -30 8 -25 17
-52 20 -60 7 -18 7 -15 21 -67 7 -23 26 -83 43 -135 17 -51 32 -97 33 -103 3
-12 67 -217 102 -323 13 -40 24 -77 24 -82 0 -5 5 -21 12 -37 6 -15 12 -30 13
-33 1 -3 7 -24 14 -48 6 -23 22 -75 36 -115 13 -39 40 -126 60 -192 20 -66 40
-127 43 -135 3 -8 6 -18 7 -22 2 -5 3 -9 5 -10 1 -2 3 -11 5 -20 2 -10 17 -59
33 -110 54 -166 133 -417 138 -440 3 -13 6 -27 7 -33 2 -5 5 -14 8 -20 4 -5
16 -39 27 -75 11 -36 41 -132 67 -215 68 -217 108 -343 153 -485 96 -303 116
-366 116 -375 1 -7 276 -10 803 -11 l802 -2 13 37 c7 20 13 38 13 41 1 3 7 23
13 45 6 22 12 45 13 50 0 6 4 15 8 20 6 8 48 133 56 165 1 7 168 516 227 695
27 83 51 158 53 168 2 9 7 22 10 27 3 5 8 18 10 27 2 10 29 97 61 193 32 96
59 180 60 185 1 6 16 51 32 100 60 182 225 690 227 700 1 5 5 17 8 25 11 29
36 106 77 235 23 72 45 139 49 150 5 11 27 81 50 155 23 74 50 155 59 180 9
25 17 48 18 53 1 4 2 8 4 10 1 1 3 9 5 17 1 8 12 44 24 80 12 36 21 70 22 75
0 6 5 16 11 23 6 6 8 12 4 12 -4 0 0 13 9 30 8 16 15 31 14 32 -1 2 17 64 41
138 24 74 45 137 45 140 0 3 9 30 20 60 11 30 20 57 20 60 1 3 14 46 30 95 15
50 27 91 26 93 -1 1 6 16 14 32 8 16 15 31 14 32 -1 2 6 28 16 58 11 30 20 57
20 60 0 3 11 37 24 75 13 39 24 75 25 80 1 6 7 24 13 40 17 44 134 406 139
430 2 11 8 29 13 40 5 11 17 45 26 75 9 30 19 62 22 70 3 8 7 20 9 25 2 6 12
38 23 73 10 34 16 62 13 63 -35 4 -1397 3 -1409 -2 -14 -5 -55 -105 -78 -189
-7 -26 -45 -144 -52 -160 -3 -8 -7 -20 -8 -26 -2 -6 -51 -157 -110 -335 -58
-178 -108 -331 -110 -339 -2 -8 -36 -112 -75 -230 -39 -118 -73 -223 -75 -232
-2 -9 -8 -25 -13 -35 -6 -10 -10 -20 -10 -23 1 -5 -78 -253 -89 -280 -3 -8 -7
-20 -8 -26 -2 -5 -30 -93 -63 -195 -132 -399 -274 -832 -327 -999 -31 -96 -59
-182 -62 -190 -4 -8 -7 -17 -8 -20 0 -3 -9 -29 -19 -59 l-19 -55 -29 90 c-16
49 -31 96 -32 104 -2 8 -27 89 -56 180 -28 91 -52 170 -54 175 -1 6 -15 51
-30 100 -16 50 -29 95 -31 100 -1 6 -5 17 -8 25 -7 19 -55 172 -97 310 -17 58
-34 114 -38 125 -3 11 -7 22 -7 25 -4 19 -59 191 -68 215 -7 17 -12 33 -13 38
-1 4 -2 8 -4 10 -1 1 -3 9 -5 17 -1 8 -15 56 -31 105 -15 50 -29 95 -30 100
-1 6 -18 60 -37 120 -34 106 -90 285 -92 295 -1 3 -16 52 -34 110 -18 58 -44
141 -58 185 -14 44 -32 100 -40 125 -8 25 -16 52 -18 60 -4 19 -54 180 -62
200 -3 8 -7 20 -8 26 -2 5 -31 100 -65 210 -34 109 -63 204 -64 209 -1 6 -4
15 -7 20 -4 6 -12 34 -20 63 -10 41 -17 52 -33 53 -76 3 -1347 1 -1350 -2 -2
-2 -68 -197 -146 -434 -78 -236 -151 -457 -162 -490 -11 -33 -24 -69 -28 -80
-5 -11 -34 -99 -65 -195 -31 -96 -59 -182 -62 -190 -4 -8 -7 -17 -8 -20 0 -3
-9 -30 -20 -60 -11 -30 -20 -57 -20 -60 -9 -38 -29 -98 -37 -107 -6 -7 -7 -13
-3 -13 4 0 2 -7 -5 -15 -7 -8 -10 -15 -6 -15 4 0 0 -13 -9 -30 -8 -16 -15 -33
-15 -37 0 -7 -11 -46 -26 -93 -3 -8 -5 -15 -5 -15 1 0 -11 -31 -25 -70 -14
-38 -28 -81 -30 -94 -3 -13 -10 -33 -15 -43 -6 -11 -12 -27 -14 -36 -3 -18
-101 -316 -112 -342 -3 -8 -7 -17 -8 -20 -1 -3 -8 -25 -15 -50 -7 -25 -14 -47
-15 -50 -1 -3 -5 -12 -8 -20 -4 -8 -30 -87 -58 -175 -28 -88 -55 -164 -59
-170 -5 -5 -9 -14 -9 -20 -1 -13 -51 -173 -64 -205 -5 -14 -11 -29 -12 -35 -9
-36 -49 -151 -55 -158 -4 -5 -24 44 -45 110 -20 65 -39 125 -42 133 -3 8 -5
19 -4 24 1 4 -3 14 -8 20 -6 7 -12 21 -14 32 -8 42 -20 80 -30 92 -5 6 -7 12
-4 12 3 0 -5 33 -19 73 -14 39 -27 80 -29 91 -3 10 -15 53 -29 95 -13 42 -44
141 -69 221 -25 80 -49 156 -53 170 -4 14 -9 27 -9 30 -1 3 -4 12 -8 20 -3 8
-22 69 -42 135 -20 66 -53 169 -72 229 -19 59 -36 113 -38 120 -1 6 -5 19 -9
28 -4 9 -9 22 -10 30 -1 7 -15 54 -31 103 -16 50 -29 92 -30 95 -5 24 -39 129
-46 142 -5 10 -9 26 -9 36 0 10 -3 22 -7 26 -4 3 -8 13 -9 22 -1 8 -10 38 -19
67 -36 108 -54 166 -90 282 -20 66 -42 136 -48 155 -6 19 -12 37 -12 40 -1 3
-4 12 -7 20 -3 8 -18 56 -33 105 -15 50 -37 117 -47 150 -11 33 -21 65 -22 70
-1 6 -21 71 -45 145 -23 74 -47 151 -53 170 -6 19 -14 39 -19 44 -5 6 -320 10
-769 10 l-761 1 6 -25z"/>
</g>
</svg>
